M48
;Layer_Color=9474304
;FILE_FORMAT=2:5
INCH,LZ
;TYPE=PLATED
T1F00S00C0.02165
T3F00S00C0.02800
T4F00S00C0.02992
T5F00S00C0.03000
T6F00S00C0.03150
T7F00S00C0.03543
%
T01
X00745Y016
T03
X00415Y01325
X00675Y0132
X00755Y01245
X0063Y01565
X00665Y0167
X00335Y0153
X00975Y019
T04
X0023Y0112
Y0119874
X0109614
Y0112
Y0127748
Y0135622
Y0143496
Y015137
Y0159244
Y0167118
Y0174992
Y0182866
X0023
Y0174992
Y0167118
Y0159244
Y015137
Y0143496
Y0135622
Y0127748
T05
X01275Y01085
X00695Y01005
X00865Y00625
X00115Y0053
X0038Y0142
Y0162
X0022Y02045
X002Y022
X00305
X004
X005
X006
X007
X009Y0216
Y0226
X01
Y0216
X011
Y0226
X01295Y022
T06
X006222Y0052
X0076
T07
X0058839Y0018432
X0076161
M30
