%FSLAX25Y25*%
%MOIN*%
G70*
G01*
G75*
G04 Layer_Color=65535*
%ADD10R,0.05000X0.06000*%
%ADD11R,0.06000X0.05000*%
%ADD12R,0.04331X0.08465*%
%ADD13R,0.04331X0.08465*%
%ADD14R,0.13780X0.08465*%
%ADD15R,0.08661X0.17716*%
%ADD16R,0.07087X0.06299*%
%ADD17R,0.01575X0.09449*%
%ADD18R,0.03937X0.05906*%
%ADD19R,0.12598X0.11024*%
%ADD20R,0.02756X0.05315*%
%ADD21R,0.02756X0.07087*%
G04:AMPARAMS|DCode=22|XSize=74.8mil|YSize=129.92mil|CornerRadius=0mil|HoleSize=0mil|Usage=FLASHONLY|Rotation=0.000|XOffset=0mil|YOffset=0mil|HoleType=Round|Shape=Octagon|*
%AMOCTAGOND22*
4,1,8,-0.01870,0.06496,0.01870,0.06496,0.03740,0.04626,0.03740,-0.04626,0.01870,-0.06496,-0.01870,-0.06496,-0.03740,-0.04626,-0.03740,0.04626,-0.01870,0.06496,0.0*
%
%ADD22OCTAGOND22*%

%ADD23R,0.11024X0.12598*%
%ADD24R,0.11811X0.11811*%
%ADD25R,0.11811X0.07087*%
%ADD26O,0.01772X0.06496*%
%ADD27O,0.06496X0.01772*%
%ADD28C,0.01969*%
%ADD29C,0.01181*%
%ADD30C,0.01772*%
%ADD31C,0.06000*%
%ADD32R,0.06000X0.06000*%
%ADD33R,0.06000X0.06000*%
%ADD34R,0.05906X0.05906*%
%ADD35C,0.05000*%
%ADD36R,0.05000X0.05000*%
%ADD37C,0.04724*%
%ADD38C,0.03543*%
%ADD39C,0.00984*%
%ADD40C,0.01000*%
%ADD41C,0.02362*%
%ADD42C,0.01200*%
%ADD43C,0.01378*%
%ADD44C,0.00787*%
%ADD45C,0.00394*%
%ADD46C,0.00606*%
%ADD47C,0.00591*%
D39*
X26437Y41398D02*
X25699Y41824D01*
Y40971D01*
X26437Y41398D01*
X107590Y45537D02*
X106852Y45964D01*
Y45111D01*
X107590Y45537D01*
X54957Y172772D02*
X54219Y173198D01*
Y172345D01*
X54957Y172772D01*
D40*
X111248Y12252D02*
X111987Y11580D01*
X112762Y10950D01*
X113570Y10364D01*
X114410Y9823D01*
X115279Y9330D01*
X116174Y8885D01*
X117092Y8491D01*
X118030Y8148D01*
X118986Y7858D01*
X119956Y7621D01*
X120939Y7438D01*
X121929Y7310D01*
X122925Y7237D01*
X123924Y7219D01*
X124923Y7256D01*
X125917Y7349D01*
X126905Y7496D01*
X127884Y7698D01*
X128849Y7954D01*
X129799Y8263D01*
X130731Y8625D01*
X131641Y9037D01*
X132527Y9499D01*
X133385Y10009D01*
X134215Y10566D01*
X135012Y11168D01*
X135774Y11813D01*
X136500Y12500D01*
X136500Y31500D02*
X135765Y32195D01*
X134992Y32847D01*
X134184Y33456D01*
X133343Y34018D01*
X132472Y34531D01*
X131573Y34996D01*
X130650Y35409D01*
X129705Y35769D01*
X128742Y36077D01*
X127762Y36329D01*
X126770Y36527D01*
X125769Y36668D01*
X124761Y36753D01*
X123750Y36781D01*
X122739Y36753D01*
X121731Y36668D01*
X120730Y36527D01*
X119738Y36329D01*
X118758Y36077D01*
X117795Y35769D01*
X116850Y35409D01*
X115927Y34996D01*
X115028Y34531D01*
X114157Y34018D01*
X113316Y33456D01*
X112508Y32847D01*
X111735Y32195D01*
X111000Y31500D01*
X29500Y172000D02*
X30500D01*
X46500D01*
X29500Y132000D02*
Y172000D01*
Y132000D02*
X46500D01*
Y172000D01*
X27500Y79500D02*
Y83499D01*
X29499Y85498D01*
X31499Y83499D01*
Y79500D01*
Y82499D01*
X27500D01*
X33498Y79500D02*
Y85498D01*
X35497Y83499D01*
X37497Y85498D01*
Y79500D01*
X43495Y84498D02*
X42495Y85498D01*
X40496D01*
X39496Y84498D01*
Y83499D01*
X40496Y82499D01*
X42495D01*
X43495Y81499D01*
Y80500D01*
X42495Y79500D01*
X40496D01*
X39496Y80500D01*
X99000Y65498D02*
Y59500D01*
X101999D01*
X102999Y60500D01*
Y61499D01*
X101999Y62499D01*
X99000D01*
X101999D01*
X102999Y63499D01*
Y64498D01*
X101999Y65498D01*
X99000D01*
X104998D02*
Y59500D01*
X108997D01*
X40499Y192998D02*
X39499Y193998D01*
X37500D01*
X36500Y192998D01*
Y189000D01*
X37500Y188000D01*
X39499D01*
X40499Y189000D01*
X42498Y188000D02*
X44497D01*
X43498D01*
Y193998D01*
X42498Y192998D01*
X56999Y198998D02*
X55999Y199998D01*
X54000D01*
X53000Y198998D01*
Y195000D01*
X54000Y194000D01*
X55999D01*
X56999Y195000D01*
X62997Y194000D02*
X58998D01*
X62997Y197999D01*
Y198998D01*
X61997Y199998D01*
X59998D01*
X58998Y198998D01*
X56999Y117502D02*
X55999Y116502D01*
X54000D01*
X53000Y117502D01*
Y121500D01*
X54000Y122500D01*
X55999D01*
X56999Y121500D01*
X58998Y117502D02*
X59998Y116502D01*
X61997D01*
X62997Y117502D01*
Y118501D01*
X61997Y119501D01*
X60997D01*
X61997D01*
X62997Y120501D01*
Y121500D01*
X61997Y122500D01*
X59998D01*
X58998Y121500D01*
X99648Y45498D02*
X98649Y46498D01*
X96649D01*
X95650Y45498D01*
Y41500D01*
X96649Y40500D01*
X98649D01*
X99648Y41500D01*
X104647Y40500D02*
Y46498D01*
X101648Y43499D01*
X105646D01*
X111002Y90999D02*
X110002Y89999D01*
Y88000D01*
X111002Y87000D01*
X115000D01*
X116000Y88000D01*
Y89999D01*
X115000Y90999D01*
X110002Y96997D02*
Y92998D01*
X113001D01*
X112001Y94997D01*
Y95997D01*
X113001Y96997D01*
X115000D01*
X116000Y95997D01*
Y93998D01*
X115000Y92998D01*
X97499Y177498D02*
X96499Y178498D01*
X94500D01*
X93500Y177498D01*
Y173500D01*
X94500Y172500D01*
X96499D01*
X97499Y173500D01*
X103497Y178498D02*
X101497Y177498D01*
X99498Y175499D01*
Y173500D01*
X100498Y172500D01*
X102497D01*
X103497Y173500D01*
Y174499D01*
X102497Y175499D01*
X99498D01*
X8499Y216998D02*
X7499Y217998D01*
X5500D01*
X4500Y216998D01*
Y213000D01*
X5500Y212000D01*
X7499D01*
X8499Y213000D01*
X10498Y217998D02*
X14497D01*
Y216998D01*
X10498Y213000D01*
Y212000D01*
X12999Y38002D02*
X11999Y37002D01*
X10000D01*
X9000Y38002D01*
Y42000D01*
X10000Y43000D01*
X11999D01*
X12999Y42000D01*
X14998Y38002D02*
X15998Y37002D01*
X17997D01*
X18997Y38002D01*
Y39001D01*
X17997Y40001D01*
X18997Y41001D01*
Y42000D01*
X17997Y43000D01*
X15998D01*
X14998Y42000D01*
Y41001D01*
X15998Y40001D01*
X14998Y39001D01*
Y38002D01*
X15998Y40001D02*
X17997D01*
X8999Y13498D02*
X7999Y14498D01*
X6000D01*
X5000Y13498D01*
Y9500D01*
X6000Y8500D01*
X7999D01*
X8999Y9500D01*
X10998D02*
X11998Y8500D01*
X13997D01*
X14997Y9500D01*
Y13498D01*
X13997Y14498D01*
X11998D01*
X10998Y13498D01*
Y12499D01*
X11998Y11499D01*
X14997D01*
X4000Y94498D02*
Y88500D01*
X6999D01*
X7999Y89500D01*
Y93498D01*
X6999Y94498D01*
X4000D01*
X9998Y88500D02*
X11997D01*
X10998D01*
Y94498D01*
X9998Y93498D01*
X129500Y161998D02*
Y156000D01*
X132499D01*
X133499Y157000D01*
Y160998D01*
X132499Y161998D01*
X129500D01*
X139497Y156000D02*
X135498D01*
X139497Y159999D01*
Y160998D01*
X138497Y161998D01*
X136498D01*
X135498Y160998D01*
X70000Y122998D02*
Y117000D01*
X72999D01*
X73999Y118000D01*
Y121998D01*
X72999Y122998D01*
X70000D01*
X78997Y117000D02*
Y122998D01*
X75998Y119999D01*
X79997D01*
X129002Y69500D02*
X135000D01*
Y72499D01*
X134000Y73499D01*
X130002D01*
X129002Y72499D01*
Y69500D01*
Y79497D02*
Y75498D01*
X132001D01*
X131001Y77497D01*
Y78497D01*
X132001Y79497D01*
X134000D01*
X135000Y78497D01*
Y76498D01*
X134000Y75498D01*
X4000Y64498D02*
Y58500D01*
X6999D01*
X7999Y59500D01*
Y63498D01*
X6999Y64498D01*
X4000D01*
X13997D02*
X11997Y63498D01*
X9998Y61499D01*
Y59500D01*
X10998Y58500D01*
X12997D01*
X13997Y59500D01*
Y60499D01*
X12997Y61499D01*
X9998D01*
X98000Y209998D02*
X99999D01*
X99000D01*
Y204000D01*
X98000D01*
X99999D01*
X106997Y208998D02*
X105997Y209998D01*
X103998D01*
X102998Y208998D01*
Y207999D01*
X103998Y206999D01*
X105997D01*
X106997Y205999D01*
Y205000D01*
X105997Y204000D01*
X103998D01*
X102998Y205000D01*
X108996Y204000D02*
Y209998D01*
X111995D01*
X112995Y208998D01*
Y206999D01*
X111995Y205999D01*
X108996D01*
X114995Y204000D02*
X116994D01*
X115994D01*
Y209998D01*
X114995Y208998D01*
X120000Y7498D02*
Y1500D01*
X123999D01*
X125998D02*
X127997D01*
X126998D01*
Y7498D01*
X125998Y6498D01*
X4000Y142500D02*
Y148498D01*
X6999D01*
X7999Y147498D01*
Y145499D01*
X6999Y144499D01*
X4000D01*
X5999D02*
X7999Y142500D01*
X9998D02*
X11997D01*
X10998D01*
Y148498D01*
X9998Y147498D01*
X129500Y130500D02*
Y136498D01*
X132499D01*
X133499Y135498D01*
Y133499D01*
X132499Y132499D01*
X129500D01*
X131499D02*
X133499Y130500D01*
X139497D02*
X135498D01*
X139497Y134499D01*
Y135498D01*
X138497Y136498D01*
X136498D01*
X135498Y135498D01*
X91500Y128500D02*
X85502D01*
Y131499D01*
X86502Y132499D01*
X88501D01*
X89501Y131499D01*
Y128500D01*
Y130499D02*
X91500Y132499D01*
Y137497D02*
X85502D01*
X88501Y134498D01*
Y138497D01*
X88000Y193500D02*
Y199498D01*
X90999D01*
X91999Y198498D01*
Y196499D01*
X90999Y195499D01*
X88000D01*
X89999D02*
X91999Y193500D01*
X97997Y199498D02*
X93998D01*
Y196499D01*
X95997Y197499D01*
X96997D01*
X97997Y196499D01*
Y194500D01*
X96997Y193500D01*
X94998D01*
X93998Y194500D01*
X16000Y89000D02*
Y94998D01*
X18999D01*
X19999Y93998D01*
Y91999D01*
X18999Y90999D01*
X16000D01*
X17999D02*
X19999Y89000D01*
X25997Y94998D02*
X23997Y93998D01*
X21998Y91999D01*
Y90000D01*
X22998Y89000D01*
X24997D01*
X25997Y90000D01*
Y90999D01*
X24997Y91999D01*
X21998D01*
X133499Y208998D02*
X132499Y209998D01*
X130500D01*
X129500Y208998D01*
Y207999D01*
X130500Y206999D01*
X132499D01*
X133499Y205999D01*
Y205000D01*
X132499Y204000D01*
X130500D01*
X129500Y205000D01*
X135498Y204000D02*
X137497D01*
X136498D01*
Y209998D01*
X135498Y208998D01*
X53000Y46498D02*
Y40500D01*
X55999D01*
X56999Y41500D01*
Y42499D01*
X55999Y43499D01*
X53000D01*
X55999D01*
X56999Y44499D01*
Y45498D01*
X55999Y46498D01*
X53000D01*
X58998Y40500D02*
Y44499D01*
X60997Y46498D01*
X62997Y44499D01*
Y40500D01*
Y43499D01*
X58998D01*
X64996Y46498D02*
X68995D01*
X66996D01*
Y40500D01*
X70994Y39500D02*
X74993D01*
X76992Y46498D02*
X78992D01*
X77992D01*
Y40500D01*
X76992D01*
X78992D01*
X81991D02*
Y46498D01*
X85989Y40500D01*
Y46498D01*
X49000Y141498D02*
Y136500D01*
X50000Y135500D01*
X51999D01*
X52999Y136500D01*
Y141498D01*
X54998Y135500D02*
X56997D01*
X55998D01*
Y141498D01*
X54998Y140498D01*
X86000Y51501D02*
X82001D01*
X84001Y49502D02*
Y53500D01*
X43500Y104498D02*
X47499Y98500D01*
Y104498D02*
X43500Y98500D01*
X49498Y104498D02*
Y98500D01*
X52497D01*
X53497Y99500D01*
Y100499D01*
Y101499D01*
X52497Y102499D01*
X49498D01*
X58495Y98500D02*
X56496D01*
X55496Y99500D01*
Y101499D01*
X56496Y102499D01*
X58495D01*
X59495Y101499D01*
Y100499D01*
X55496D01*
X64493Y98500D02*
X62494D01*
X61494Y99500D01*
Y101499D01*
X62494Y102499D01*
X64493D01*
X65493Y101499D01*
Y100499D01*
X61494D01*
X73490Y104498D02*
Y98500D01*
X76489D01*
X77489Y99500D01*
Y100499D01*
X76489Y101499D01*
X73490D01*
X76489D01*
X77489Y102499D01*
Y103498D01*
X76489Y104498D01*
X73490D01*
X82487Y98500D02*
X80488D01*
X79488Y99500D01*
Y101499D01*
X80488Y102499D01*
X82487D01*
X83487Y101499D01*
Y100499D01*
X79488D01*
X89485Y104498D02*
Y98500D01*
X86486D01*
X85486Y99500D01*
Y101499D01*
X86486Y102499D01*
X89485D01*
D41*
X64504Y166177D02*
X64059Y167101D01*
X63060Y167329D01*
X62259Y166690D01*
Y165665D01*
X63060Y165026D01*
X64059Y165254D01*
X64504Y166177D01*
D42*
X4000Y210500D02*
X12000D01*
X4000Y203500D02*
Y210500D01*
X12000Y203500D02*
Y210500D01*
Y192500D02*
Y199500D01*
X4000Y192500D02*
Y199500D01*
Y192500D02*
X12000D01*
X120000Y123500D02*
X128000D01*
Y130500D01*
X120000Y123500D02*
Y130500D01*
Y134500D02*
Y141500D01*
X128000Y134500D02*
Y141500D01*
X120000D02*
X128000D01*
X94000Y146500D02*
X102000D01*
Y139500D02*
Y146500D01*
X94000Y139500D02*
Y146500D01*
Y128500D02*
Y135500D01*
X102000Y128500D02*
Y135500D01*
X94000Y128500D02*
X102000D01*
X47500Y88000D02*
Y96000D01*
X40500D02*
X47500D01*
X40500Y88000D02*
X47500D01*
X29500D02*
X36500D01*
X29500Y96000D02*
X36500D01*
X29500Y88000D02*
Y96000D01*
X78000Y185500D02*
X86000D01*
Y192500D01*
X78000Y185500D02*
Y192500D01*
Y196500D02*
Y203500D01*
X86000Y196500D02*
Y203500D01*
X78000D02*
X86000D01*
X120000Y149500D02*
X128000D01*
Y156500D01*
X120000Y149500D02*
Y156500D01*
Y160500D02*
Y167500D01*
X128000Y160500D02*
Y167500D01*
X120000D02*
X128000D01*
X102500Y116000D02*
Y124000D01*
X95500Y116000D02*
X102500D01*
X95500Y124000D02*
X102500D01*
X84500D02*
X91500D01*
X84500Y116000D02*
X91500D01*
X84500D02*
Y124000D01*
X4000Y86500D02*
X12000D01*
Y79500D02*
Y86500D01*
X4000Y79500D02*
Y86500D01*
Y68500D02*
Y75500D01*
X12000Y68500D02*
Y75500D01*
X4000Y68500D02*
X12000D01*
X64000Y185500D02*
X72000D01*
Y192500D01*
X64000Y185500D02*
Y192500D01*
Y196500D02*
Y203500D01*
X72000Y196500D02*
Y203500D01*
X64000D02*
X72000D01*
X18500Y8000D02*
Y16000D01*
Y8000D02*
X25500D01*
X18500Y16000D02*
X25500D01*
X29500D02*
X36500D01*
X29500Y8000D02*
X36500D01*
Y16000D01*
X94000Y170500D02*
X102000D01*
X94000Y163500D02*
Y170500D01*
X102000Y163500D02*
Y170500D01*
Y152500D02*
Y159500D01*
X94000Y152500D02*
Y159500D01*
Y152500D02*
X102000D01*
X31500Y116000D02*
Y124000D01*
Y116000D02*
X38500D01*
X31500Y124000D02*
X38500D01*
X42500D02*
X49500D01*
X42500Y116000D02*
X49500D01*
Y124000D01*
X4000Y140500D02*
X12000D01*
X4000Y133500D02*
Y140500D01*
X12000Y133500D02*
Y140500D01*
Y122500D02*
Y129500D01*
X4000Y122500D02*
Y129500D01*
Y122500D02*
X12000D01*
X4000Y116500D02*
X12000D01*
X4000Y109500D02*
Y116500D01*
X12000Y109500D02*
Y116500D01*
Y98500D02*
Y105500D01*
X4000Y98500D02*
Y105500D01*
Y98500D02*
X12000D01*
X31500Y178000D02*
Y186000D01*
Y178000D02*
X38500D01*
X31500Y186000D02*
X38500D01*
X42500D02*
X49500D01*
X42500Y178000D02*
X49500D01*
Y186000D01*
D43*
X4000Y190500D02*
X12000D01*
X120000Y143500D02*
X128000D01*
X94000Y126500D02*
X102000D01*
X27500Y88000D02*
Y96000D01*
X78000Y205500D02*
X86000D01*
X120000Y169500D02*
X128000D01*
X82500Y116000D02*
Y124000D01*
X4000Y66500D02*
X12000D01*
X85500Y211500D02*
X114500D01*
Y230500D01*
X85500D02*
X114500D01*
X85500Y211500D02*
Y230500D01*
X80500Y47500D02*
Y56500D01*
X58000D02*
X80500D01*
X58000Y47500D02*
Y56500D01*
Y47500D02*
X80500D01*
X64000Y205500D02*
X72000D01*
X15500Y215500D02*
Y224500D01*
X74500D01*
Y215500D02*
Y224500D01*
X15500Y215500D02*
X74500D01*
X132000Y178500D02*
X132087Y178587D01*
X128500Y178500D02*
X132000D01*
X128500Y202000D02*
X132000D01*
X118000D02*
X121000D01*
X117913Y178500D02*
X121500D01*
X132087Y178587D02*
Y201984D01*
X117913Y178500D02*
Y201984D01*
X16500Y8000D02*
Y16000D01*
X7000Y22500D02*
Y33500D01*
X72512Y59500D02*
Y92500D01*
X61685Y59228D02*
X72315D01*
X61488D02*
Y92693D01*
X61500D02*
X72315D01*
X18500Y107000D02*
Y186000D01*
Y107000D02*
X114500D01*
Y185000D01*
X91043Y208457D02*
X114500Y185000D01*
X40957Y208457D02*
X91043D01*
X18500Y186000D02*
X40957Y208457D01*
X94500Y4000D02*
X105500D01*
X135500Y86500D02*
Y97500D01*
X92500Y71000D02*
Y77000D01*
X94000Y150500D02*
X102000D01*
X51500Y116000D02*
Y124000D01*
X4000Y120500D02*
X12000D01*
X4000Y96500D02*
X12000D01*
X51500Y178000D02*
Y186000D01*
D44*
X21811Y66398D02*
X48189D01*
X21811Y53602D02*
X48189D01*
X21811D02*
Y66398D01*
X48189Y53602D02*
Y66398D01*
X129343Y41108D02*
Y64730D01*
X109657D02*
X129343D01*
X109657Y41108D02*
Y64730D01*
Y41108D02*
X129343D01*
X59386Y146886D02*
X82614D01*
X59386Y170114D02*
X82614D01*
Y146886D02*
Y170114D01*
X59386Y146886D02*
Y170114D01*
X118624Y228436D02*
X117312Y227780D01*
X116000Y226468D01*
Y225156D01*
X116656Y224500D01*
X117968D01*
X118624Y225156D01*
Y225812D01*
X117968Y226468D01*
X116000D01*
X118624Y217436D02*
X116000D01*
Y215468D01*
X117312Y216124D01*
X117968D01*
X118624Y215468D01*
Y214156D01*
X117968Y213500D01*
X116656D01*
X116000Y214156D01*
X83624Y224000D02*
X81000D01*
X83624Y226624D01*
Y227280D01*
X82968Y227936D01*
X81656D01*
X81000Y227280D01*
X81500Y214000D02*
X82812D01*
X82156D01*
Y217936D01*
X81500Y217280D01*
D45*
X49783Y11345D02*
Y26306D01*
Y-5190D02*
Y4652D01*
X85216Y-4797D02*
Y5046D01*
Y11345D02*
Y26306D01*
X49783Y-5190D02*
X84823D01*
X74587Y32605D02*
X85216D01*
X49783D02*
X60413D01*
X84823Y-5190D02*
X85216Y-4797D01*
D46*
X42220Y146000D02*
X41564Y146656D01*
Y147968D01*
X42220Y148624D01*
X42876D01*
X43532Y147968D01*
X44188Y148624D01*
X44844D01*
X45500Y147968D01*
Y146656D01*
X44844Y146000D01*
X44188D01*
X43532Y146656D01*
X42876Y146000D01*
X42220D01*
X43532Y146656D02*
Y147968D01*
X45500Y149936D02*
X41564D01*
X42876Y151248D01*
X41564Y152560D01*
X45500D01*
X41564Y153872D02*
X45500D01*
X43532D01*
Y156495D01*
X41564D01*
X45500D01*
X42876Y157807D02*
Y160431D01*
X45500Y157807D01*
Y160431D01*
X31901Y226876D02*
X32426Y226351D01*
X33475D01*
X34000Y226876D01*
Y228975D01*
X33475Y229500D01*
X32426D01*
X31901Y228975D01*
Y227926D01*
X32950D01*
X30851Y229500D02*
Y226351D01*
X28752Y229500D01*
Y226351D01*
X27703D02*
Y229500D01*
X26129D01*
X25604Y228975D01*
Y226876D01*
X26129Y226351D01*
X27703D01*
X44000Y226351D02*
X42800Y229500D01*
X41601Y226351D02*
X42800Y229500D01*
X38947Y227101D02*
X39097Y226801D01*
X39397Y226501D01*
X39696Y226351D01*
X40296D01*
X40596Y226501D01*
X40896Y226801D01*
X41046Y227101D01*
X41196Y227551D01*
Y228300D01*
X41046Y228750D01*
X40896Y229050D01*
X40596Y229350D01*
X40296Y229500D01*
X39696D01*
X39397Y229350D01*
X39097Y229050D01*
X38947Y228750D01*
X35813Y227101D02*
X35963Y226801D01*
X36263Y226501D01*
X36562Y226351D01*
X37162D01*
X37462Y226501D01*
X37762Y226801D01*
X37912Y227101D01*
X38062Y227551D01*
Y228300D01*
X37912Y228750D01*
X37762Y229050D01*
X37462Y229350D01*
X37162Y229500D01*
X36562D01*
X36263Y229350D01*
X35963Y229050D01*
X35813Y228750D01*
X54500Y229500D02*
Y226351D01*
X52926D01*
X52401Y226876D01*
Y227926D01*
X52926Y228450D01*
X54500D01*
X53451D02*
X52401Y229500D01*
X51351Y226351D02*
X49252Y229500D01*
Y226351D02*
X51351Y229500D01*
X48203Y226351D02*
Y229500D01*
X46628D01*
X46104Y228975D01*
Y226876D01*
X46628Y226351D01*
X48203D01*
X65000D02*
X62901D01*
X63951D01*
Y229500D01*
X61851Y226351D02*
X59752Y229500D01*
Y226351D02*
X61851Y229500D01*
X58703Y226351D02*
Y229500D01*
X57129D01*
X56604Y228975D01*
Y226876D01*
X57129Y226351D01*
X58703D01*
D47*
X75000D02*
Y229500D01*
X73426D01*
X72901Y228975D01*
Y226876D01*
X73426Y226351D01*
X75000D01*
X71851D02*
X69752D01*
X70802D01*
Y229500D01*
X68703D02*
Y226351D01*
X67128D01*
X66604Y226876D01*
Y227926D01*
X67128Y228450D01*
X68703D01*
X67653D02*
X66604Y229500D01*
X77936Y70500D02*
X74656D01*
X74000Y69844D01*
Y68532D01*
X74656Y67876D01*
X77936D01*
X74000Y66564D02*
Y64596D01*
X74656Y63940D01*
X75312Y64596D01*
Y65908D01*
X75968Y66564D01*
X76624Y65908D01*
Y63940D01*
X77936Y62629D02*
X74000D01*
Y60661D01*
X74656Y60005D01*
X75312D01*
X75968D01*
X76624Y60661D01*
Y62629D01*
X77936Y90500D02*
X74000D01*
Y88532D01*
X74656Y87876D01*
X75312D01*
X75968Y88532D01*
Y90500D01*
Y88532D01*
X76624Y87876D01*
X77280D01*
X77936Y88532D01*
Y90500D01*
X76624Y85908D02*
Y84596D01*
X75968Y83940D01*
X74000D01*
Y85908D01*
X74656Y86564D01*
X75312Y85908D01*
Y83940D01*
X77280Y81973D02*
X76624D01*
Y82629D01*
Y81317D01*
Y81973D01*
X74656D01*
X74000Y81317D01*
M02*
