%FSLAX25Y25*%
%MOIN*%
G70*
G01*
G75*
G04 Layer_Color=16711935*
%ADD10R,0.05000X0.06000*%
%ADD11R,0.06000X0.05000*%
%ADD12R,0.04331X0.08465*%
%ADD13R,0.04331X0.08465*%
%ADD14R,0.13780X0.08465*%
%ADD15R,0.08661X0.17716*%
%ADD16R,0.07087X0.06299*%
%ADD17R,0.01575X0.09449*%
%ADD18R,0.03937X0.05906*%
%ADD19R,0.12598X0.11024*%
%ADD20R,0.02756X0.05315*%
%ADD21R,0.02756X0.07087*%
G04:AMPARAMS|DCode=22|XSize=74.8mil|YSize=129.92mil|CornerRadius=0mil|HoleSize=0mil|Usage=FLASHONLY|Rotation=0.000|XOffset=0mil|YOffset=0mil|HoleType=Round|Shape=Octagon|*
%AMOCTAGOND22*
4,1,8,-0.01870,0.06496,0.01870,0.06496,0.03740,0.04626,0.03740,-0.04626,0.01870,-0.06496,-0.01870,-0.06496,-0.03740,-0.04626,-0.03740,0.04626,-0.01870,0.06496,0.0*
%
%ADD22OCTAGOND22*%

%ADD23R,0.11024X0.12598*%
%ADD24R,0.11811X0.11811*%
%ADD25R,0.11811X0.07087*%
%ADD26O,0.01772X0.06496*%
%ADD27O,0.06496X0.01772*%
%ADD28C,0.01969*%
%ADD29C,0.01181*%
%ADD30C,0.01772*%
%ADD31C,0.06000*%
%ADD32R,0.06000X0.06000*%
%ADD33R,0.06000X0.06000*%
%ADD34R,0.05906X0.05906*%
%ADD35C,0.05000*%
%ADD36R,0.05000X0.05000*%
%ADD37C,0.04724*%
%ADD38C,0.03543*%
%ADD39C,0.00984*%
%ADD40C,0.01000*%
%ADD41C,0.02362*%
%ADD42C,0.01200*%
%ADD43C,0.01378*%
%ADD44C,0.00787*%
%ADD45C,0.00394*%
%ADD46C,0.00606*%
%ADD47C,0.00591*%
%ADD48R,0.05800X0.06800*%
%ADD49R,0.06800X0.05800*%
%ADD50R,0.05131X0.09265*%
%ADD51R,0.05131X0.09265*%
%ADD52R,0.14579X0.09265*%
%ADD53R,0.09461X0.18517*%
%ADD54R,0.07887X0.07099*%
%ADD55R,0.02375X0.10249*%
%ADD56R,0.04737X0.06706*%
%ADD57R,0.13398X0.11824*%
%ADD58R,0.03556X0.06115*%
%ADD59R,0.03556X0.07887*%
G04:AMPARAMS|DCode=60|XSize=82.8mil|YSize=137.92mil|CornerRadius=0mil|HoleSize=0mil|Usage=FLASHONLY|Rotation=0.000|XOffset=0mil|YOffset=0mil|HoleType=Round|Shape=Octagon|*
%AMOCTAGOND60*
4,1,8,-0.02070,0.06896,0.02070,0.06896,0.04140,0.04826,0.04140,-0.04826,0.02070,-0.06896,-0.02070,-0.06896,-0.04140,-0.04826,-0.04140,0.04826,-0.02070,0.06896,0.0*
%
%ADD60OCTAGOND60*%

%ADD61R,0.11824X0.13398*%
%ADD62R,0.12611X0.12611*%
%ADD63R,0.12611X0.07887*%
%ADD64O,0.02572X0.07296*%
%ADD65O,0.07296X0.02572*%
%ADD66C,0.06800*%
%ADD67R,0.06800X0.06800*%
%ADD68R,0.06800X0.06800*%
%ADD69R,0.06706X0.06706*%
%ADD70C,0.05800*%
%ADD71R,0.05800X0.05800*%
%ADD72C,0.05524*%
%ADD73C,0.04343*%
D66*
X110000Y226000D02*
D03*
Y216000D02*
D03*
X100000Y226000D02*
D03*
Y216000D02*
D03*
X90000Y226000D02*
D03*
X62220Y52000D02*
D03*
X38000Y142000D02*
D03*
Y162000D02*
D03*
X70000Y220000D02*
D03*
X60000D02*
D03*
X50000D02*
D03*
X40000D02*
D03*
X30500D02*
D03*
X127500Y108500D02*
D03*
X22000Y204500D02*
D03*
X11500Y53000D02*
D03*
X69500Y100500D02*
D03*
X86500Y62500D02*
D03*
X129500Y220000D02*
D03*
D67*
X90000Y216000D02*
D03*
X76000Y52000D02*
D03*
D68*
X20000Y220000D02*
D03*
D69*
X67000Y66000D02*
D03*
Y76000D02*
D03*
Y86000D02*
D03*
D70*
X109614Y182866D02*
D03*
Y174992D02*
D03*
Y167118D02*
D03*
Y159244D02*
D03*
Y151370D02*
D03*
Y143496D02*
D03*
Y135622D02*
D03*
Y127748D02*
D03*
Y119874D02*
D03*
Y112000D02*
D03*
X23000D02*
D03*
Y119874D02*
D03*
Y127748D02*
D03*
Y135622D02*
D03*
Y143496D02*
D03*
Y151370D02*
D03*
Y159244D02*
D03*
Y167118D02*
D03*
Y174992D02*
D03*
X67500Y132000D02*
D03*
X75500Y124500D02*
D03*
X97500Y190000D02*
D03*
X66500Y167000D02*
D03*
X63000Y156500D02*
D03*
X41500Y132500D02*
D03*
X33500Y153000D02*
D03*
D71*
X23000Y182866D02*
D03*
D72*
X74500Y160000D02*
D03*
D73*
X58839Y18432D02*
D03*
X76161D02*
D03*
M02*
