%FSLAX25Y25*%
%MOIN*%
G70*
G01*
G75*
G04 Layer_Color=8421504*
%ADD10R,0.05000X0.06000*%
%ADD11R,0.06000X0.05000*%
%ADD12R,0.04331X0.08465*%
%ADD13R,0.04331X0.08465*%
%ADD14R,0.13780X0.08465*%
%ADD15R,0.08661X0.17716*%
%ADD16R,0.07087X0.06299*%
%ADD17R,0.01575X0.09449*%
%ADD18R,0.03937X0.05906*%
%ADD19R,0.12598X0.11024*%
%ADD20R,0.02756X0.05315*%
%ADD21R,0.02756X0.07087*%
G04:AMPARAMS|DCode=22|XSize=74.8mil|YSize=129.92mil|CornerRadius=0mil|HoleSize=0mil|Usage=FLASHONLY|Rotation=0.000|XOffset=0mil|YOffset=0mil|HoleType=Round|Shape=Octagon|*
%AMOCTAGOND22*
4,1,8,-0.01870,0.06496,0.01870,0.06496,0.03740,0.04626,0.03740,-0.04626,0.01870,-0.06496,-0.01870,-0.06496,-0.03740,-0.04626,-0.03740,0.04626,-0.01870,0.06496,0.0*
%
%ADD22OCTAGOND22*%

%ADD23R,0.11024X0.12598*%
%ADD24R,0.11811X0.11811*%
%ADD25R,0.11811X0.07087*%
%ADD26O,0.01772X0.06496*%
%ADD27O,0.06496X0.01772*%
%ADD28C,0.01969*%
%ADD29C,0.01181*%
%ADD30C,0.01772*%
%ADD31C,0.06000*%
%ADD32R,0.06000X0.06000*%
%ADD33R,0.06000X0.06000*%
%ADD34R,0.05906X0.05906*%
%ADD35C,0.05000*%
%ADD36R,0.05000X0.05000*%
%ADD37C,0.04724*%
%ADD38C,0.03543*%
%ADD39C,0.00984*%
%ADD40C,0.01000*%
%ADD41C,0.02362*%
%ADD42C,0.01200*%
%ADD43C,0.01378*%
%ADD44C,0.00787*%
%ADD45C,0.00394*%
%ADD46C,0.00606*%
%ADD47C,0.00591*%
D10*
X8000Y206000D02*
D03*
Y197000D02*
D03*
X124000Y128000D02*
D03*
Y137000D02*
D03*
X98000Y142000D02*
D03*
Y133000D02*
D03*
X82000Y190000D02*
D03*
Y199000D02*
D03*
X124000Y154000D02*
D03*
Y163000D02*
D03*
X8000Y82000D02*
D03*
Y73000D02*
D03*
X68000Y190000D02*
D03*
Y199000D02*
D03*
X98000Y166000D02*
D03*
Y157000D02*
D03*
X8000Y136000D02*
D03*
Y127000D02*
D03*
Y112000D02*
D03*
Y103000D02*
D03*
D11*
X43000Y92000D02*
D03*
X34000D02*
D03*
X98000Y120000D02*
D03*
X89000D02*
D03*
X23000Y12000D02*
D03*
X32000D02*
D03*
X36000Y120000D02*
D03*
X45000D02*
D03*
X36000Y182000D02*
D03*
X45000D02*
D03*
D12*
X25945Y47795D02*
D03*
X44055D02*
D03*
D13*
X35000D02*
D03*
D14*
Y72205D02*
D03*
D15*
X132000Y22000D02*
D03*
X115465D02*
D03*
D16*
X85216Y8195D02*
D03*
X49784D02*
D03*
Y29455D02*
D03*
X85216D02*
D03*
D17*
X61201Y32605D02*
D03*
X64350D02*
D03*
X67500D02*
D03*
X70650D02*
D03*
X73799D02*
D03*
D18*
X125000Y176000D02*
D03*
Y204346D02*
D03*
D19*
X35000Y28000D02*
D03*
X15315D02*
D03*
D20*
X125406Y45537D02*
D03*
X113594D02*
D03*
D21*
X119500Y46423D02*
D03*
D22*
X119500Y56463D02*
D03*
D23*
X100000Y32000D02*
D03*
Y12315D02*
D03*
D24*
X98000Y92000D02*
D03*
X127528D02*
D03*
D25*
X120000Y74000D02*
D03*
X100315D02*
D03*
D26*
X59976Y175035D02*
D03*
X63126D02*
D03*
X66276D02*
D03*
X69425D02*
D03*
X72575D02*
D03*
X75724D02*
D03*
X78874D02*
D03*
X82024D02*
D03*
Y141965D02*
D03*
X78874D02*
D03*
X75724D02*
D03*
X72575D02*
D03*
X69425D02*
D03*
X66276D02*
D03*
X63126D02*
D03*
X59976D02*
D03*
D27*
X87535Y169524D02*
D03*
Y166374D02*
D03*
Y163224D02*
D03*
Y160075D02*
D03*
Y156925D02*
D03*
Y153776D02*
D03*
Y150626D02*
D03*
Y147476D02*
D03*
X54465D02*
D03*
Y150626D02*
D03*
Y153776D02*
D03*
Y156925D02*
D03*
Y160075D02*
D03*
Y163224D02*
D03*
Y166374D02*
D03*
Y169524D02*
D03*
M02*
